<svg height="36" viewBox="0 0 138 36" width="138" xmlns="http://www.w3.org/2000/svg"><path d="m127.183959 38.9668734h3.132498l-.518923-2.3758461v-14.1642687h-2.996489v6.4603743c-.901364-1.021132-2.141094-1.62019-3.60498-1.62019-2.996963 0-5.317192 2.4193972-5.317192 5.9720471 0 3.5521865 2.320229 5.972047 5.317192 5.972047 1.487107 0 2.770911-.62176 3.672748-1.687833l.315146 1.4432061zm59.234084-8.5248771c.608491 0 1.171488.1547451 1.689464.5096394l1.419813-3.1296491c-.653986-.4002986-1.419813-.5772825-2.162893-.5772825-1.352045 0-2.478513.597668-3.198845 1.7096085l-.316093-1.444596h-3.087005l.495703 2.2424133v9.2128903h2.995067v-7.3031325c.405661-.7551929 1.171962-1.220818 2.163367-1.220818v.0009266h.000948zm8.786162 5.6829426c-1.733538 0-3.018763-1.1318628-3.018763-2.8864122 0-1.7758616 1.285225-2.8854856 3.018763-2.8854856 1.75818 0 3.020183 1.109624 3.020183 2.8854856 0 1.7545494-1.262003 2.8864122-3.01971 2.8864122zm-74.419359-2.8864122c0-1.7758616 1.284277-2.8854856 3.018762-2.8854856 1.758181 0 3.01971 1.109624 3.01971 2.8854856 0 1.7545494-1.261529 2.8864122-3.018762 2.8864122-1.734485 0-3.01971-1.1318628-3.01971-2.8864122zm87.691012 2.8864122c-1.734485 0-3.018762-1.1318628-3.018762-2.8864122 0-1.7758616 1.284277-2.8854856 3.018762-2.8854856 1.757233 0 3.018762 1.109624 3.018762 2.8854856 0 1.7545494-1.261529 2.8864122-3.018762 2.8864122zm-70.88262-5.9498083c1.554402 0 2.568554.710252 2.8837 2.0200253h-5.7674c.337893-1.3097733 1.351572-2.0200253 2.883226-2.0200253zm35.846023 0c1.55535 0 2.569502.710252 2.884648 2.0200253h-5.7674c.337893-1.3097733 1.351572-2.0200253 2.883226-2.0200253zm-14.621329 8.7917428h4.821489l3.132499-11.4557669h-3.267087l-2.297482 9.28007-2.29843-9.28007h-3.22254l3.132499 11.4553036zm-7.72841 0h2.995067v-11.4562302h-2.995067zm-13.037072.2121953c1.668139 0 3.312582-.4447761 4.686901-1.3102365l-1.148741-2.5305912c-1.081921.5550436-2.275682.8881624-3.492665.8881624-1.576676 0-2.68087-.5995212-3.154299-1.7096085h8.425996c.090041-.4216107.13601-.8432215.13601-1.3542508 0-3.5521866-2.500786-5.9275695-5.858389-5.9275695-3.378928 0-5.857441 2.3976217-5.857441 5.9720471 0 3.6406785 2.455765 5.972047 6.263576 5.972047zm76.349091-5.940542c0-3.5521866-2.523533-5.9720471-5.925683-5.9720471-3.402623 0-5.925683 2.4198605-5.925683 5.9720471 0 3.5526498 2.52306 5.972047 5.925209 5.972047 3.402624 0 5.925683-2.4193972 5.925683-5.972047zm-40.555671 5.972047c1.666243 0 3.31116-.4438495 4.686901-1.3097732l-1.150163-2.5319812c-1.081446.5550437-2.275682.8876992-3.492665.8876992-1.576675 0-2.680869-.5985946-3.154298-1.7096085h8.426943c.090041-.4216108.134588-.8432215.134588-1.3537876 0-3.5521865-2.50126-5.9275694-5.858389-5.9275694-3.378928 0-5.857441 2.3971584-5.857441 5.9720471 0 3.6406785 2.45624 5.972047 6.26405 5.972047v.0009266zm21.358808 0c3.402624 0 5.92521-2.4193972 5.92521-5.972047 0-3.5521866-2.52306-5.9720471-5.925683-5.9720471-3.402624 0-5.925684 2.4198605-5.925684 5.9720471 0 3.5526498 2.523534 5.972047 5.92521 5.972047zm-49.792988-.2441636h2.996015v-16.5401148h-2.996489v16.5401148zm7.186739-13.0328691c1.058699 0 1.870021-.7996706 1.870021-1.8652802s-.810374-1.8648169-1.869547-1.8648169c-1.081447 0-1.892769.7992073-1.892769 1.8648169s.811796 1.8648169 1.893243 1.8648169zm-51.479136-13.9330777-1.7155285 15.8738771-2.926351-13.3831304-9.1747622 1.8967852 2.9249293 13.3822038-13.2275806 2.7335203 2.3363418 10.6899179 23.2610552 4.8063628 5.319561-11.6160717 2.53159-23.4295127-9.330202-.9544156.000947.0009266zm-7.3502352 23.0278243c-.4795898.4271704-1.1136721.3877892-1.7866143.1700342-.6715206-.2168284-.9700795-1.0067695-.7155936-1.9616484.1895612-.708862 1.0819206-.815423 1.5283372-.8228359.1696573-.0027799.3364712.0305783.4904896.0982214.3156194.1389926.850182.43551.9587058.8876991.156388.6523385.0056868 1.1999692-.473903 1.6271396h-.0009478v.0009267zm6.7341612.7366605c-.348318.5884019-1.262951.6662377-2.1628928.2381406-.6065959-.2891045-.6018568-1.0248385-.5355104-1.4733211.0355427-.2446269.1360101-.4748913.2938198-.6690176.2165737-.2668657.5781617-.6148104.9961442-.6254665.6795769-.0176057 1.2643732.2789118 1.5946832.815423.331732.5346581.165866 1.1244499-.1834 1.7142416h-.001896z" fill="#00ccbc" transform="translate(-77 -12)"/></svg>