<svg height="16" viewBox="0 0 12 16" width="12" xmlns="http://www.w3.org/2000/svg"><g fill="none" fill-rule="evenodd" transform="translate(-6 -4)"><path d="m0 0h24v24h-24z"/><path d="m8.25 9.75c0-2.06775 1.68225-3.75 3.75-3.75s3.75 1.68225 3.75 3.75-1.68225 3.75-3.75 3.75-3.75-1.68225-3.75-3.75m6.546 4.4426875c1.474-.929625 2.454-2.57125 2.454-4.4426875 0-2.8995-2.3505-5.25-5.25-5.25s-5.25 2.3505-5.25 5.25c0 1.8714375.98 3.5130625 2.454 4.4426875-1.9036875 1.0069375-3.204 3.008-3.204 5.3073125h1.5c0-2.4813125 2.0186875-4.5 4.5-4.5s4.5 2.0186875 4.5 4.5h1.5c0-2.2993125-1.3003125-4.300375-3.204-5.3073125m-4.296-3.6926875c.4141875 0 .75-.3358125.75-.75 0-.41425-.3358125-.75-.75-.75s-.75.33575-.75.75c0 .4141875.3358125.75.75.75m3 0c.4141875 0 .75-.3358125.75-.75 0-.41425-.3358125-.75-.75-.75s-.75.33575-.75.75c0 .4141875.3358125.75.75.75" fill="#00ccbc"/></g></svg>